<svg width="46" height="56" viewBox="0 0 46 56" fill="none" xmlns="http://www.w3.org/2000/svg">
<path d="M22.8998 36.7867C31.0879 36.7867 37.7256 30.1489 37.7256 21.9609C37.7256 13.7728 31.0879 7.13512 22.8998 7.13512C14.7118 7.13512 8.07404 13.7728 8.07404 21.9609C8.07404 30.1489 14.7118 36.7867 22.8998 36.7867Z" fill="#A9D6FA"/>
<path d="M42.244 15.6755C41.6608 13.8787 42.98 10.6337 41.4261 8.4988C39.8645 6.35299 36.3459 6.59591 34.8524 5.50873C33.3678 4.42833 32.5311 1.00579 29.9774 0.176736C27.4692 -0.637664 24.8547 1.62671 22.8998 1.62671C20.9516 1.62671 18.3236 -0.635586 15.822 0.176736C13.2726 1.0047 12.4242 4.43391 10.9473 5.50873C9.44347 6.60312 5.93891 6.34763 4.37322 8.4988C2.82098 10.6318 4.13664 13.885 3.55543 15.6756C2.99904 17.3889 0 19.2409 0 21.961C0 23.6293 1.12459 24.9637 2.11683 26.1409C3.73163 28.0565 3.82755 28.2835 3.64894 30.9138C3.54657 32.4206 3.43074 34.1284 4.37322 35.4233C5.78699 37.3659 8.76809 37.34 10.4685 38.1371L5.41697 50.2628C5.06501 51.1079 5.849 51.9875 6.72881 51.7345L12.6462 50.0335L15.605 55.4327C16.035 56.2175 17.1804 56.1807 17.557 55.3661L22.8998 43.8087L28.2426 55.3661C28.6179 56.1781 29.7629 56.2205 30.1946 55.4327L33.1534 50.0335L39.0708 51.7345C39.4747 51.8509 39.9098 51.7249 40.1894 51.4111C40.4692 51.0973 40.5442 50.6508 40.3827 50.2628L35.331 38.137C37.0348 37.3384 40.0125 37.3659 41.4264 35.4231C42.9787 33.2901 41.6631 30.0369 42.2442 28.2463C42.8005 26.5334 45.7997 24.681 45.7997 21.9609C45.7994 19.2469 42.7967 17.3772 42.244 15.6755ZM16.4813 52.48L14.1442 48.2152C13.8984 47.7667 13.3747 47.5482 12.8829 47.6896L8.31134 49.0037L12.1339 39.8284C13.2857 41.6034 14.4094 43.923 16.9743 43.923C18.334 43.923 19.6908 43.257 20.9701 42.7699L16.4813 52.48ZM32.9166 47.6896C32.4248 47.5483 31.9011 47.7666 31.6553 48.2152L29.3182 52.48L24.8294 42.7698C26.5019 43.4068 28.2384 44.3101 29.9774 43.7452C31.7732 43.1622 32.6963 41.3223 33.6656 39.8283L37.4881 49.0035L32.9166 47.6896ZM40.1634 27.5708C39.431 29.8271 40.571 32.8805 39.6575 34.1359C38.6749 35.4862 35.2704 35.1858 33.2641 36.8852C31.5899 38.3377 30.7449 41.196 29.302 41.6646C27.8602 42.1317 25.2999 40.1077 22.8998 40.1077C20.4868 40.1077 17.9432 42.1335 16.4977 41.6646C14.977 41.1708 14.1229 38.0186 12.2344 36.6445C11.3082 35.9705 10.1335 35.6771 8.99745 35.3934C5.83314 34.6031 5.61297 34.28 5.83161 31.0618C5.91135 29.8871 5.9937 28.6724 5.63616 27.5709C4.91921 25.3633 2.1877 23.6076 2.1877 21.9609C2.1877 20.3192 4.92151 18.5516 5.63616 16.3511C6.36853 14.0948 5.22852 11.0412 6.14213 9.78591C7.07596 8.50284 10.3145 8.67445 12.2345 7.27731C14.1299 5.89777 14.9714 2.75283 16.4977 2.25714C17.9377 1.7899 20.4998 3.81408 22.8999 3.81408C25.2992 3.81408 27.8615 1.78935 29.302 2.25714C30.8355 2.75512 31.6585 5.88968 33.5654 7.27731C35.4732 8.66581 38.728 8.5082 39.6578 9.78591C40.5761 11.048 39.4268 14.0811 40.1637 16.351C40.883 18.5661 43.6121 20.311 43.6121 21.9609C43.612 23.6028 40.8792 25.3667 40.1634 27.5708Z" fill="#2F97EB"/>
<path d="M32.2947 17.7064L26.4807 16.8615L23.8806 11.593C23.4801 10.7815 22.3195 10.7813 21.9189 11.593L19.3189 16.8615L13.5049 17.7064C12.6096 17.8364 12.2502 18.94 12.8986 19.572L17.1057 23.6729L16.1126 29.4635C15.9599 30.3555 16.8982 31.0375 17.6996 30.6166L22.8999 27.8825L28.1002 30.6166C28.898 31.0358 29.8407 30.3601 29.6872 29.4635L28.6941 23.6729L32.9012 19.572C33.5488 18.9404 33.1907 17.8365 32.2947 17.7064ZM26.7552 22.5079C26.4975 22.7591 26.3798 23.1211 26.4407 23.476L27.1564 27.649L23.4087 25.6787C23.0903 25.5113 22.7092 25.5112 22.3907 25.6787L18.643 27.649L19.3588 23.476C19.4196 23.1211 19.3019 22.7591 19.0442 22.5079L16.0123 19.5525L20.2023 18.9437C20.5586 18.892 20.8665 18.6682 21.0259 18.3454L22.8997 14.5486L24.7735 18.3454C24.9328 18.6682 25.2407 18.892 25.597 18.9437L29.7871 19.5525L26.7552 22.5079Z" fill="#2F97EB"/>
</svg>
