<?xml version="1.0" encoding="UTF-8"?>
<svg xmlns="http://www.w3.org/2000/svg" xmlns:xlink="http://www.w3.org/1999/xlink" width="60px" height="60px" viewBox="0 0 60 60" version="1.1">
<g id="surface1">
<path style="fill-rule:nonzero;fill:rgb(17.647059%,17.647059%,17.647059%);fill-opacity:1;stroke-width:1;stroke-linecap:butt;stroke-linejoin:miter;stroke:rgb(0%,0%,0%);stroke-opacity:1;stroke-miterlimit:4;" d="M 4.079689 42.317204 L 18.161726 19.200789 L 41.442204 5.359377 L 53.440646 10.642192 L 65.679714 19.200789 L 79.439094 42.317204 L 65.679714 65.357057 L 41.442204 79.597688 L 18.80157 65.357057 Z M 4.079689 42.317204 " transform="matrix(0.714285,0,0,0.714285,0,0)"/>
<path style="fill-rule:nonzero;fill:rgb(100%,100%,100%);fill-opacity:1;stroke-width:1;stroke-linecap:butt;stroke-linejoin:miter;stroke:rgb(17.647059%,17.647059%,17.647059%);stroke-opacity:1;stroke-miterlimit:4;" d="M 42.196892 1.542188 L 42.000017 1.460157 L 41.803142 1.542188 C 31.352356 6.026565 23.882041 10.47266 17.729695 16.619538 C 11.566411 22.771884 6.753909 30.597668 1.547657 41.786735 L 1.454688 41.989079 L 1.542188 42.196892 C 6.103127 52.844552 10.587504 60.418774 16.745319 66.582058 C 22.892197 72.739873 30.6797 77.464875 41.792204 82.457845 L 42.010954 82.550814 L 42.218767 82.446908 C 53.544553 76.907062 61.57815 71.974248 67.796121 65.854714 C 74.019561 59.729711 78.400031 52.423458 82.463314 42.180486 L 82.539877 41.989079 L 82.457845 41.797673 C 78.175813 32.068763 74.413311 24.691416 68.561746 18.396882 C 62.699244 12.102349 54.775022 6.928909 42.196892 1.542188 Z M 20.141414 63.858619 L 6.628128 42.000017 L 20.141414 20.141414 L 42.000017 6.628128 L 63.858619 20.141414 L 77.371906 42.000017 L 63.858619 63.858619 L 42.000017 77.371906 Z M 20.141414 63.858619 " transform="matrix(0.714285,0,0,0.714285,0,0)"/>
<path style=" stroke:none;fill-rule:nonzero;fill:rgb(100%,100%,100%);fill-opacity:1;" d="M 28.859375 4.972656 C 29.082031 15.054688 28.253906 21.984375 19.714844 26 L 26.402344 28.511719 L 30 30 L 40.285156 26 C 36.386719 24.847656 30.277344 19.402344 31.140625 4.972656 L 30 4.285156 Z M 28.859375 4.972656 "/>
<path style=" stroke:none;fill-rule:nonzero;fill:rgb(100%,100%,100%);fill-opacity:1;" d="M 28.859375 55.027344 C 29.082031 44.945312 29.960938 36.742188 19.714844 34 L 24.574219 32.054688 L 30 30 L 35.660156 32.230469 L 40.285156 34 C 34.945312 35.445312 30.277344 40.597656 31.140625 55.027344 L 30 55.714844 Z M 28.859375 55.027344 "/>
<path style=" stroke:none;fill-rule:nonzero;fill:rgb(100%,100%,100%);fill-opacity:1;" d="M 8.855469 31.140625 L 27.257812 31.140625 L 30 30 L 27.257812 28.859375 L 8.855469 28.859375 Z M 8.855469 31.140625 "/>
<path style=" stroke:none;fill-rule:nonzero;fill:rgb(100%,100%,100%);fill-opacity:1;" d="M 32.855469 28.859375 L 30 30 L 32.855469 31.140625 L 51.144531 31.140625 L 51.144531 28.859375 Z M 32.855469 28.859375 "/>
</g>
</svg>
