<svg width="300" height="56" viewBox="0 0 300 56" fill="none" xmlns="http://www.w3.org/2000/svg">
<g clip-path="url(#clip0_303_76)">
<path d="M22.9823 4.08343C24.3501 3.29373 26.0353 3.29373 27.4031 4.08343L44.7998 14.1274C46.1676 14.9171 47.0102 16.3766 47.0102 17.956V38.0439C47.0102 39.6233 46.1676 41.0828 44.7998 41.8725L27.4031 51.9165C26.0353 52.7062 24.3501 52.7062 22.9823 51.9165L5.58559 41.8725C4.21778 41.0828 3.37518 39.6233 3.37518 38.0439V17.956C3.37518 16.3766 4.21778 14.9171 5.58559 14.1274L22.9823 4.08343Z" fill="#2F97EB"/>
<g clip-path="url(#clip1_303_76)">
<path d="M24.5061 34.4642L24.5366 39.094L20.6985 36.8254L20.668 32.1955L24.5061 34.4642Z" fill="white"/>
<path d="M30.8395 36.0086L30.809 31.3788L34.6169 29.0599L34.645 33.3359C34.6464 33.5554 34.5326 33.7596 34.3451 33.8738L30.8395 36.0086Z" fill="white"/>
<path d="M25.7864 39.0858L25.756 34.456L29.5639 32.137L29.5944 36.7668L25.7864 39.0858Z" fill="white"/>
<path d="M25.7159 28.3685L29.5238 26.0495L29.5543 30.6794L25.7464 32.9983L25.7159 28.3685Z" fill="white"/>
<path d="M30.7993 29.9211L30.7688 25.2913L34.5767 22.9723L34.6072 27.6022L30.7993 29.9211Z" fill="white"/>
<path d="M30.1367 24.2127L26.2633 21.9231L30.1062 19.5828L33.9797 21.8724L30.1367 24.2127Z" fill="white"/>
<path d="M25.0534 22.66L28.9268 24.9495L25.0839 27.2898L21.2104 25.0003L25.0534 22.66Z" fill="white"/>
<path d="M19.9603 19.6497L23.8338 21.9392L19.9908 24.2796L16.1174 21.99L19.9603 19.6497Z" fill="white"/>
<path d="M25.3361 16.7634L28.8867 18.8621L25.0437 21.2024L21.1703 18.9129L24.693 16.7676C24.8901 16.6476 25.1374 16.6459 25.3361 16.7634Z" fill="white"/>
<path d="M19.3731 25.3663L19.4035 29.9961L15.5655 27.7275L15.535 23.0976L19.3731 25.3663Z" fill="white"/>
<path d="M20.6584 30.7379L20.6279 26.108L24.466 28.3767L24.4965 33.0065L20.6584 30.7379Z" fill="white"/>
<path d="M15.575 29.1852L19.413 31.4538L19.4435 36.0836L15.9101 33.9951C15.7211 33.8834 15.6046 33.6807 15.6031 33.4612L15.575 29.1852Z" fill="white"/>
</g>
<path d="M76.28 13.1354C77.2731 14.0437 77.7697 15.2125 77.7697 16.6416C77.7697 18.0707 77.2731 19.2455 76.28 20.166C75.2869 21.0743 73.9062 21.6375 72.1379 21.8555V23.3633H69.0132V21.8555C67.245 21.6375 65.8583 21.0743 64.853 20.166C63.8599 19.2455 63.3633 18.0707 63.3633 16.6416C63.3633 15.2125 63.8599 14.0437 64.853 13.1354C65.8583 12.2149 67.245 11.6457 69.0132 11.4277V9.91984H72.1379V11.4277C73.9062 11.6457 75.2869 12.2149 76.28 13.1354ZM66.6152 16.6416C66.6152 17.9012 67.4146 18.646 69.0132 18.8761V14.3526C68.1897 14.4737 67.5841 14.722 67.1966 15.0974C66.809 15.4729 66.6152 15.9876 66.6152 16.6416ZM72.1379 18.8761C72.9615 18.755 73.5671 18.5128 73.9546 18.1494C74.3422 17.774 74.536 17.2714 74.536 16.6416C74.536 15.9876 74.3422 15.4729 73.9546 15.0974C73.5671 14.722 72.9615 14.4737 72.1379 14.3526V18.8761ZM90.5775 21.365C89.2937 22.6367 87.7192 23.2725 85.8541 23.2725C83.989 23.2725 82.4084 22.6367 81.1125 21.365C79.8287 20.0812 79.1868 18.5067 79.1868 16.6416C79.1868 14.7765 79.8287 13.208 81.1125 11.9364C82.4084 10.6526 83.989 10.0107 85.8541 10.0107C87.7192 10.0107 89.2937 10.6526 90.5775 11.9364C91.8734 13.208 92.5213 14.7765 92.5213 16.6416C92.5213 18.5067 91.8734 20.0812 90.5775 21.365ZM83.4016 19.1305C84.0556 19.7723 84.8731 20.0933 85.8541 20.0933C86.8351 20.0933 87.6526 19.7723 88.3066 19.1305C88.9606 18.4764 89.2876 17.6468 89.2876 16.6416C89.2876 15.6364 88.9606 14.8128 88.3066 14.1709C87.6526 13.5169 86.8351 13.1899 85.8541 13.1899C84.8731 13.1899 84.0556 13.5169 83.4016 14.1709C82.7476 14.8128 82.4206 15.6364 82.4206 16.6416C82.4206 17.6468 82.7476 18.4764 83.4016 19.1305ZM99.5163 10.2832C100.8 10.2832 101.878 10.701 102.75 11.5367C103.622 12.3724 104.058 13.4382 104.058 14.7341C104.058 16.03 103.622 17.0958 102.75 17.9314C101.878 18.7671 100.8 19.185 99.5163 19.185H97.8268V23H94.5749V10.2832H99.5163ZM99.5163 16.0966C99.8796 16.0966 100.182 15.9694 100.425 15.7151C100.679 15.4607 100.806 15.1337 100.806 14.7341C100.806 14.3344 100.679 14.0134 100.425 13.7712C100.182 13.5169 99.8796 13.3897 99.5163 13.3897H97.8268V16.0966H99.5163ZM114.502 10.2832V13.426H111.36V23H108.108V13.426H104.965V10.2832H114.502ZM123.239 23V16.6053L118.752 23H116.227V10.2832H119.479V16.6779L123.966 10.2832H126.473V23H123.239ZM135.171 23.2725C133.258 23.2725 131.671 22.6427 130.412 21.3831C129.164 20.1115 128.54 18.5309 128.54 16.6416C128.54 14.7522 129.164 13.1778 130.412 11.9182C131.671 10.6465 133.258 10.0107 135.171 10.0107C136.322 10.0107 137.388 10.2832 138.369 10.8282C139.35 11.3732 140.119 12.1059 140.676 13.0264L137.86 14.6432C137.618 14.1951 137.255 13.8439 136.77 13.5895C136.298 13.3231 135.765 13.1899 135.171 13.1899C134.154 13.1899 133.33 13.5108 132.701 14.1527C132.083 14.7825 131.774 15.6121 131.774 16.6416C131.774 17.671 132.083 18.5067 132.701 19.1486C133.33 19.7784 134.154 20.0933 135.171 20.0933C135.765 20.0933 136.298 19.9661 136.77 19.7118C137.255 19.4453 137.618 19.082 137.86 18.6218L140.676 20.2568C140.119 21.1894 139.35 21.9282 138.369 22.4732C137.4 23.0061 136.334 23.2725 135.171 23.2725ZM68.9406 33.2832C70.2244 33.2832 71.3023 33.701 72.1743 34.5367C73.0463 35.3724 73.4823 36.4382 73.4823 37.7341C73.4823 39.03 73.0463 40.0958 72.1743 40.9314C71.3023 41.7671 70.2244 42.185 68.9406 42.185H67.2511V46H63.9992V33.2832H68.9406ZM68.9406 39.0966C69.3039 39.0966 69.6067 38.9694 69.8489 38.7151C70.1033 38.4607 70.2304 38.1337 70.2304 37.7341C70.2304 37.3344 70.1033 37.0134 69.8489 36.7712C69.6067 36.5169 69.3039 36.3897 68.9406 36.3897H67.2511V39.0966H68.9406ZM78.5472 42.948H83.4704V46H75.2953V33.2832H83.3796V36.317H78.5472V38.0792H82.9254V41.0768H78.5472V42.948ZM97.5526 33.2832H100.804V46H85.5624V33.2832H88.8143V42.8571H91.5575V33.2832H94.8094V42.8571H97.5526V33.2832ZM106.604 42.948H111.527V46H103.352V33.2832H111.436V36.317H106.604V38.0792H110.982V41.0768H106.604V42.948ZM120.45 33.2832H123.683V46H120.45V41.1131H116.871V46H113.619V33.2832H116.871V37.9884H120.45V33.2832ZM133.258 46V39.6053L128.771 46H126.246V33.2832H129.497V39.6779L133.985 33.2832H136.492V46H133.258ZM148.478 33.2832V46H145.245V41.8943H144.554L141.993 46H138.378L141.284 41.4401C140.533 41.0889 139.934 40.5802 139.486 39.9141C139.05 39.248 138.832 38.5031 138.832 37.6796C138.832 36.4079 139.268 35.3603 140.14 34.5367C141.012 33.701 142.096 33.2832 143.392 33.2832H148.478ZM143.428 39.1329H145.245V36.2807H143.428C143.04 36.2807 142.713 36.42 142.447 36.6986C142.193 36.965 142.065 37.3041 142.065 37.7159C142.065 38.1398 142.193 38.485 142.447 38.7514C142.713 39.0179 143.04 39.145 143.428 39.1329Z" fill="#0F1F2C"/>
</g>
<defs>
<clipPath id="clip0_303_76">
<rect width="300" height="56" fill="white"/>
</clipPath>
<clipPath id="clip1_303_76">
<rect width="21.3397" height="21.3397" fill="white" transform="translate(24.9899 13) rotate(44.6229)"/>
</clipPath>
</defs>
</svg>
