<svg width="24" height="24" viewBox="0 0 24 24" fill="none" xmlns="http://www.w3.org/2000/svg">
<path d="M13.4633 14.4445C13.0155 14.7431 12.4953 14.9009 11.959 14.9009C11.4227 14.9009 10.9025 14.7431 10.4547 14.4445L3.07882 9.52711C3.0379 9.49983 2.99803 9.47139 2.95897 9.44214L3.00002 17.0835C3.00002 18.0074 3.74973 18.7406 4.65704 18.7406H19.343C20.2668 18.7406 21 17.9908 21 17.0835L20.9589 9.44211C20.9198 9.47143 20.8799 9.49994 20.8388 9.52726L13.4633 14.4445Z" fill="#2F97EB"/>
<path d="M3.70488 8.23321L11.0808 13.1507C11.36 13.3368 11.68 13.4299 12 13.4299C12.32 13.4299 12.64 13.3368 12.9192 13.1507L20.2951 8.23321C20.7365 7.93913 21 7.44695 21 6.91573C21 6.00234 20.2569 5.25928 19.3435 5.25928H4.65646C3.7431 5.25931 3 6.00237 3 6.91661C3 7.44695 3.26353 7.93913 3.70488 8.23321Z" fill="#2F97EB"/>
</svg>
