<svg width="24" height="24" viewBox="0 0 24 24" fill="none" xmlns="http://www.w3.org/2000/svg">
<g clip-path="url(#clip0_303_212)">
<path d="M18.6856 6.22786C18.1027 5.07856 17.2402 4.09425 16.1774 3.3654C15.1147 2.63656 13.8857 2.18658 12.6036 2.05683C12.0236 1.99864 11.4393 1.99864 10.8593 2.05683C9.57719 2.18667 8.34828 2.63663 7.28549 3.36539C6.22269 4.09415 5.36009 5.07832 4.77694 6.22747C4.04324 7.69373 3.75985 9.34431 3.96245 10.9713C4.16504 12.5983 4.84457 14.129 5.91544 15.3706L11.1374 21.7194C11.2095 21.8071 11.3002 21.8778 11.4029 21.9263C11.5055 21.9748 11.6177 22 11.7313 22C11.8448 22 11.957 21.9748 12.0597 21.9263C12.1623 21.8778 12.253 21.8071 12.3251 21.7194L17.5471 15.3706C18.6179 14.1291 19.2975 12.5985 19.5001 10.9715C19.7027 9.34457 19.4193 7.69405 18.6856 6.22786ZM11.7313 12.7749C11.1231 12.7749 10.5286 12.5946 10.0229 12.2567C9.51723 11.9188 9.12311 11.4386 8.89037 10.8767C8.65763 10.3148 8.59674 9.69654 8.71539 9.10005C8.83404 8.50357 9.1269 7.95566 9.55694 7.52562C9.98698 7.09558 10.5349 6.80272 11.1314 6.68407C11.7279 6.56542 12.3461 6.62632 12.908 6.85905C13.4699 7.09179 13.9501 7.48592 14.288 7.99159C14.6259 8.49726 14.8062 9.09178 14.8062 9.69995C14.8053 10.5152 14.481 11.2968 13.9045 11.8732C13.3281 12.4497 12.5465 12.7739 11.7313 12.7749Z" fill="#2F97EB"/>
</g>
<defs>
<clipPath id="clip0_303_212">
<rect width="20" height="20" fill="white" transform="translate(2 2)"/>
</clipPath>
</defs>
</svg>
