<svg width="24" height="24" viewBox="0 0 24 24" fill="none" xmlns="http://www.w3.org/2000/svg">
<path fill-rule="evenodd" clip-rule="evenodd" d="M8.08289 10.6667H9.33333C10.0697 10.6667 10.6667 10.0697 10.6667 9.33333V6.66667C10.6667 5.19391 9.47276 4 8 4H5.33333C4.59695 4 4 4.59695 4 5.33333C4 13.0244 10.9756 20 18.6667 20C19.403 20 20 19.403 20 18.6667V16C20 14.5272 18.8061 13.3333 17.3333 13.3333H14.6667C13.9303 13.3333 13.3333 13.9303 13.3333 14.6667V15.9171C11.2794 14.7965 9.51253 13.0879 8.31477 11.0735L8.08289 10.6667Z" fill="#2F97EB"/>
</svg>
